<?xml version="1.0" encoding="UTF-8"?>
<svg width="261" height="277" fill="none" version="1.1" viewBox="0 0 261 277" xmlns="http://www.w3.org/2000/svg">
 <path d="m70.838 24.934c-1.1215-0.040945-2.2313-0.026081-3.3242 0.046875-4.3718 0.29182-8.4872 1.523-12.123 3.9141-5.8168 3.8253-9.3652 9.9749-11.17 17.207 2.1353-0.71167 4.4125-1.1016 6.7793-1.1016 2.0135 0 3.9606 0.28518 5.8125 0.80664 1.2581-3.2415 3.0223-5.4731 5.1719-6.8867 1.7496-1.1506 3.8903-1.8579 6.5-2.0117 0.65242-0.038455 1.3348-0.042247 2.0469-0.009765 2.1364 0.097441 4.5463 0.52167 7.2637 1.3184 7.2464 2.1245 16.186 6.9499 25.791 14.166 3.199 2.4035 6.4768 5.0906 9.8008 8.0059l4.8398-11.65c-2.4952-2.095-4.9783-4.106-7.4316-5.9492-10.381-7.7992-20.307-13.357-29.623-16.088-3.4936-1.0242-6.9696-1.6447-10.334-1.7676zm-19.838 24.066c-9.9411 0-18 8.2828-18 18.5 0 10.217 8.0589 18.5 18 18.5s18-8.2827 18-18.5c0-10.217-8.0589-18.5-18-18.5zm75.139 6.7617-4.9336 11.873c8.2334 7.9839 16.65 17.289 24.922 27.723-5.1325-0.21221-10.325-0.35742-15.627-0.35742-7.1365 0-14.106 0.2234-20.916 0.60938l-5.1348 12.359c8.3854-0.62494 17.094-0.96875 26.051-0.96875 8.6143 0 17.013 0.30977 25.117 0.88281 2.8702 3.9877 5.7135 8.0656 8.4961 12.297 2.6754 4.0681 5.2137 8.1345 7.6484 12.188l6.8164-9.8926 0.01954-0.02539c0.22692-0.32047 0.3748-0.69172 0.53125-1.0566-1.6186-2.5997-3.2762-5.2032-4.9883-7.8066-0.13731-0.20884-0.27951-0.40541-0.41796-0.61133l-10.176 1.7969 10.168-17.15c-3.8211-0.4654-7.6931-0.89303-11.666-1.2363-11.708-15.763-23.921-29.478-35.91-40.623zm-66.684 32.502c-2.6025 1.1162-5.4576 1.7363-8.4551 1.7363-1.2259 0-2.4267-0.10806-3.5977-0.30664 1.2786 4.7169 2.7337 9.5487 4.502 14.559-3.9457 1.0534-7.7763 2.1578-11.355 3.3652-11.703 3.9479-21.373 8.6545-28.506 14.344-7.1332 5.6892-12.043 12.837-12.043 21.039s4.9098 15.35 12.043 21.039c7.1332 5.6892 16.803 10.396 28.506 14.344 12.315 4.1543 26.949 7.3892 43.111 9.5469l3.3672-11.715c-16.226-2.0855-30.828-5.2156-42.643-9.2012-10.827-3.6525-19.392-7.9951-24.859-12.355-5.4671-4.3604-7.5254-8.2623-7.5254-11.658s2.0582-7.2978 7.5254-11.658c5.4671-4.3604 14.032-8.703 24.859-12.355 3.6614-1.2352 7.6639-2.3643 11.811-3.4394 7.2844 17.79 17.366 36.862 29.908 55.934 0.52855 0.80373 1.0697 1.5737 1.6074 2.3535l4.3809-15.242c-9.8441-15.683-17.887-31.244-23.973-45.768 7.8041-1.5664 16.221-2.8423 25.066-3.8106l5.2324-12.592c-12.379 1.1022-24.067 2.8044-34.758 5.0527-1.651-4.5765-3.0009-8.9486-4.2051-13.211zm125 10.848-3.2168 5.4238c3.1076 1.6439 5.5917 4.2571 6.9316 7.1992l0.00195 0.00195c0.03878 0.08511 0.06224 0.17602 0.09961 0.26172 10.499 1.891 20.129 4.2177 28.342 6.9883 10.827 3.6525 19.392 7.9951 24.859 12.355 5.4672 4.3604 7.5254 8.2623 7.5254 11.658s-2.0582 7.2978-7.5254 11.658c-5.4672 4.3604-14.032 8.703-24.859 12.355-3.7665 1.2706-7.8926 2.4302-12.172 3.5312-5.13-12.683-11.709-26.031-19.574-39.578l-7.5625 10.977c5.9855 10.736 11.103 21.274 15.254 31.297-12.177 2.427-25.79 4.1748-40.309 5.0723l-8.5625 12.43c19.322-0.68225 37.362-2.8198 53.254-6.1348 2.2388 6.303 4.072 12.344 5.4394 18.006 2.8204 11.678 3.7074 21.798 2.7871 29.293-0.9203 7.4952-3.4109 11.939-6.9102 14.24-3.4992 2.3011-8.5641 2.8277-15.811 0.70313-7.2464-2.1246-16.186-6.9498-25.791-14.166-8.2142-6.1714-16.919-14.101-25.711-23.447l-6.9746 10.127c8.5928 8.9561 17.174 16.677 25.477 22.914 10.381 7.7993 20.307 13.357 29.623 16.088 9.3162 2.7314 18.509 2.5886 25.781-2.1934 7.2717-4.7822 11.045-13.167 12.229-22.803s0.01307-20.951-3.0352-33.572c-1.3819-5.7219-3.2096-11.744-5.3633-17.943 4.0928-1.0838 8.0662-2.222 11.768-3.4707 11.703-3.9479 21.373-8.6545 28.506-14.344 7.1332-5.6892 12.043-12.837 12.043-21.039s-4.9097-15.35-12.043-21.039c-7.1332-5.6892-16.803-10.396-28.506-14.344-10.478-3.5347-22.647-6.3972-35.994-8.5059zm-85.127 70.498-5.6016 19.492c1.7118 0.17438 3.4124 0.35711 5.1523 0.50782 5.9498 7.9571 12.03 15.376 18.139 22.219l7.0391-10.217c-3.0721-3.5095-6.1423-7.149-9.1934-10.969 5.1351 0.21242 10.33 0.35742 15.635 0.35742 0.29428 0 0.58121-0.00908 0.875-0.00977l8.3477-12.117c-3.0453 0.07853-6.1163 0.12695-9.2227 0.12695-8.6397 0-17.062-0.31235-25.188-0.88867-2.0128-2.7768-4.0053-5.6192-5.9824-8.502z" color="#000000" fill="#1c8aff" stroke-miterlimit="10" style="-inkscape-stroke:none"/>
 <path d="m79.636 269.18s2.9007-1.0574 4.1809-1.8957c1.0561-0.69156 2.8122-2.5363 2.8122-2.5363l96.049-139.42c2.404-3.395 2.612-7.875 0.945-11.531-1.673-3.675-5.487-6.689-10.222-5.853l50.806-85.692c3e-3 -0.0047 6e-3 -0.0094 9e-3 -0.0142 2.15-3.5909 2.076-8.2364 0.045-11.8-2.008-3.5224-6.174-6.0766-10.723-4.7093l-73.16 12.497-0.437 0.0747-0.418 0.1508c-2.697 0.9734-4.55 3.0871-5.56 5.4345l-0.013 0.029-0.012 0.0292-43.893 105.65c-1.4066 3.327-1.169 7.232 0.5772 10.373 1.7723 3.187 5.2935 5.673 9.5078 5.082h3e-3l1.092-0.152-31.325 109c-0.7656 1.931-0.9955 4.063-0.693 6.119l0.06866 0.56317 0.15554 0.57483c0.5285 2.131 1.6496 4.119 3.3593 5.64h7e-4c1.857 1.651 4.2723 2.594 6.845 2.373z" color="#000000" fill="url(#paint0_linear_14_133)" stroke-width="10" style="-inkscape-stroke:none"/>
 <defs>
  <linearGradient id="paint0_linear_14_133" x1="226.24" x2="-1.4528" y1="-19.15" y2="242.51" gradientUnits="userSpaceOnUse">
   <stop stop-color="#FFA439" offset="0"/>
   <stop stop-color="#FFD80B" offset="1"/>
  </linearGradient>
 </defs>
</svg>
