<?xml version="1.0" encoding="UTF-8"?><svg id="Layer_1" xmlns="http://www.w3.org/2000/svg" width="263" height="275" xmlns:xlink="http://www.w3.org/1999/xlink" viewBox="0 0 263 275"><defs><style>.cls-1,.cls-2{fill:none;}.cls-3{fill:url(#linear-gradient);}.cls-4{mask:url(#mask);}.cls-5,.cls-6{fill:#1c8aff;}.cls-6,.cls-2{stroke:#1c8aff;}.cls-7{mask:url(#mask-3);}.cls-8{mask:url(#mask-2);}.cls-9{mask:url(#mask-1);}</style><mask id="mask" x="65.54" y="34.28" width="2" height="3" maskUnits="userSpaceOnUse"/><mask id="mask-1" x="61.7" y="35.31" width="2" height="3" maskUnits="userSpaceOnUse"/><mask id="mask-2" x="205.38" y="241.91" width="3" height="3" maskUnits="userSpaceOnUse"/><mask id="mask-3" x="200.55" y="248.44" width="3" height="3" maskUnits="userSpaceOnUse"/><linearGradient id="linear-gradient" x1="247.07" y1="282.25" x2="19.38" y2="20.59" gradientTransform="translate(0 276) scale(1 -1)" gradientUnits="userSpaceOnUse"><stop offset="0" stop-color="#ffa439"/><stop offset="1" stop-color="#ffd80b"/></linearGradient></defs><path class="cls-5" d="M67.06,35.28c-.41,.06-.92,.17,0,0h0Z"/><g class="cls-4"><path class="cls-5" d="M66.92,34.29c-.22,.03-.48,.08-.57,.1,0,0-.02,0-.03,0,0,0-.04,0-.07,.02-.01,0-.03,0-.05,.02-.02,0-.06,.02-.12,.05-.03,.01-.09,.05-.15,.1-.04,.03-.22,.18-.32,.44-.04,.13-.06,.42-.03,.58,.05,.14,.18,.38,.27,.48,.18,.18,.37,.24,.42,.25,.13,.04,.23,.04,.25,.04,.04,0,.06,0,.08,0,.03,0,.05,0,.06,0,.05,0,.11-.01,.13-.02,.08-.01,.23-.04,.46-.08l-.36-1.97c-.23,.04-.36,.07-.43,.08-.05,0-.03,0,0,0,0,0,.03,0,.06,0,.01,0,.04,0,.08,0,.01,0,.12,0,.25,.04,.05,.01,.24,.07,.42,.25,.08,.09,.22,.33,.27,.48,.02,.16,0,.45-.03,.58-.1,.27-.28,.41-.32,.44-.07,.05-.13,.09-.15,.1-.06,.03-.11,.05-.12,.05-.02,0-.04,.01-.05,.02-.02,0-.04,.01-.04,.01,0,0-.01,0-.02,0,0,0,0,0,0,0,0,0,0,0,0,0,0,0,0,0,0,0,0,0,0,0,.01,0,0,0,.02,0,.04,0,.03,0,.07-.01,.11-.02,.08-.01,.18-.03,.27-.04l-.28-1.98Z"/></g><path class="cls-5" d="M63.14,36.31c-.39,.19-.75,.43,0,0h0Z"/><g class="cls-9"><path class="cls-5" d="M62.7,35.42c-.22,.11-.45,.23-.54,.3,0,0-.03,.02-.05,.04-.01,0-.03,.02-.06,.05-.01,.01-.08,.07-.15,.16-.03,.04-.12,.17-.17,.37-.03,.11-.04,.29,.01,.49,.06,.22,.19,.39,.34,.52,.27,.21,.55,.21,.61,.22,.1,0,.17-.01,.21-.02,.07-.01,.12-.03,.14-.04,.02,0,.04-.02,.05-.02,.06-.02,.12-.06,.14-.07,.08-.04,.21-.11,.4-.22l-.99-1.74c-.18,.11-.29,.17-.34,.19-.04,.02-.02,0,.02,0,0,0,.03-.01,.05-.02,.01,0,.07-.02,.14-.04,.03,0,.11-.02,.21-.02,.06,0,.34,0,.61,.22,.16,.13,.28,.3,.34,.52,.06,.2,.04,.37,.01,.49-.05,.2-.14,.33-.17,.37-.07,.09-.14,.15-.15,.16-.02,.02-.04,.04-.05,.04-.02,.02-.04,.03-.04,.03,0,0,.13-.08,.31-.17l-.88-1.8Z"/></g><path class="cls-6" d="M208.79,217.13v-.08c-.03-.08-.05-.18-.06-.3v-.03s-.01-.03-.01-.03c-.02-.07-.04-.15-.06-.2,0-.02-.02-.07-.05-.11,0-.01-.02-.04-.04-.07t0,0s-.08-.11-.22-.17c-.09-.04-.24-.06-.39,0-.14,.06-.21,.16-.24,.22-.05,.1-.06,.19-.06,.21h0c0,.08,0,.15,0,.17,0,0,0,0,0,0,0,.04,.01,.08,.02,.13,.02,.1,.06,.25,.11,.45l.45-.11h.53v-.02h0v-.02h0v-.04Zm-.13-.57s0,0,0,0c0,0,0,0,0,0Zm-.95,.25s0,0,0,0c0,0,0,0,0,0Z"/><path class="cls-5" d="M206.57,242.91c-.35,.72-.16,.35,0,0h0Z"/><g class="cls-8"><path class="cls-5" d="M205.68,242.47c-.09,.18-.14,.3-.18,.37-.01,.03-.03,.07-.04,.1,0,0,0,.02-.01,.03,0,0-.02,.05-.03,.1,0,0-.03,.11-.03,.26,0,.03,0,.31,.19,.59,.11,.13,.41,.33,.59,.39,.16,.02,.44,0,.55-.03,.2-.07,.32-.19,.35-.21,.05-.04,.08-.08,.09-.1,.03-.04,.05-.07,.06-.08,.02-.03,.03-.05,.04-.06,0,0,0-.02,.01-.02,0-.01,.01-.02,.01-.03,.04-.07,.13-.27,.22-.46l-1.82-.82c-.04,.08-.07,.16-.11,.23-.02,.03-.03,.06-.04,.09,0,.01-.01,.02-.01,.03,0,0,0,0,0,0,0,0,0,0,0-.01,0,0,0-.01,.01-.02,0,0,.01-.03,.03-.05,0-.01,.03-.04,.06-.08,.01-.02,.05-.05,.09-.1,.03-.02,.15-.14,.35-.21,.11-.03,.39-.05,.55-.03,.18,.06,.48,.26,.59,.39,.2,.27,.19,.56,.19,.59,0,.14-.03,.25-.03,.25-.01,.05-.03,.1-.03,.1,0,.01,0,.02-.01,.03,0,.02-.01,.02,0-.01,.03-.05,.08-.16,.17-.34l-1.8-.88Z"/></g><path class="cls-5" d="M201.55,249.76c.31-.24,.66-.57,0,0h0Z"/><g class="cls-7"><path class="cls-5" d="M202.16,250.55c.17-.13,.36-.29,.43-.36,0,0,.01-.01,.03-.02,0,0,.03-.03,.07-.07,0-.01,.03-.03,.05-.06,.01-.02,.06-.08,.1-.17,.02-.04,.06-.15,.08-.28,.02-.13,.03-.43-.18-.72-.23-.31-.54-.39-.71-.41-.16-.01-.29,.01-.34,.03-.11,.03-.19,.07-.21,.08-.03,.02-.06,.03-.07,.04-.03,.02-.05,.03-.06,.04-.04,.03-.09,.07-.11,.09-.06,.05-.17,.14-.34,.29l1.3,1.52c.17-.14,.26-.22,.31-.26,.04-.03,.02-.02-.01,0,0,0-.03,.02-.05,.03-.01,0-.04,.02-.07,.04-.02,0-.1,.05-.21,.08-.05,.01-.18,.04-.34,.03-.17-.02-.49-.1-.71-.41-.21-.29-.2-.59-.18-.72,.02-.14,.06-.24,.08-.28,.04-.09,.09-.16,.1-.17,.02-.03,.04-.05,.05-.06,.02-.02,.04-.04,.04-.04,0,0,.01-.01,.02-.02h.01s0,0-.03,.01c-.02,.02-.05,.04-.08,.06-.06,.05-.13,.11-.2,.16l1.23,1.57Z"/></g><path class="cls-6" d="M189.09,252.92l.05-1s-.09,0-.14-.01c0,0-.02,0-.03,0-.07,0-.15-.01-.26-.02-.04,0-.09,0-.13-.01h0s-.03,0-.04,0h0s0,0,0,0h-.03l-.03,1c.06,0,.11,0,.16,.01,.05,0,.09,0,.14,.01h0s.09,0,.13,.01h.09s0,0,0,0c.02,0,.06,0,.1,0Z"/><path class="cls-6" d="M204.36,247.67h0s0-.02,.02-.03h0s.01-.01,.02-.02m-.04,.05l.04-.05m-.04,.05s.02-.02,.03-.03l-.03,.03Zm.04-.05s0-.01,.01-.02c0,0,0,0,0-.01h0s0,0,0,0h0s0,0-.33-.17l-.08-.08h0s0-.01,0-.01c.34-.19,.44-.12,.47,0,0,0,0,0,0,0,0,.03,0,.06,0,.1,0,.02-.03,.08-.04,.11-.02,.04-.03,.06-.04,.07,0,0,0,0,0,.01Zm.1-.29v-.13l-.07-.11-.42,.24h0s0-.01,0-.01v-.47c-.17,0-.28,.08-.32,.11,0,0-.02,.01-.02,.02h0s0,0,0,0h0s0,0,0,0h0s0,0,0,0h0s0,.02-.01,.03h0s-.01,.02-.03,.04c0,0,0,0,0,0-.01,.02-.02,.04-.03,.04,0,0,0,.01,0,.02h0s0,.01,0,.01h0s0,0,0,0h0s0,0,0,0h0s-.02,.07-.03,.09c0,.04,0,.07,0,.11h-.02s.02,0,.02,0c.03,.11,.12,.17,.37,.05l.11,.08,.33,.24s-.02,.02-.03,.02c-.04,.03-.15,.11-.31,.11h.5v-.5h0Z"/><path class="cls-5" d="M49.11,86.07c6.86,0,12.43-5.57,12.43-12.43s-5.57-12.43-12.43-12.43-12.43,5.57-12.43,12.43,5.57,12.43,12.43,12.43Z"/><path class="cls-2" d="M49.11,86.07c6.86,0,12.43-5.57,12.43-12.43s-5.57-12.43-12.43-12.43-12.43,5.57-12.43,12.43,5.57,12.43,12.43,12.43Z"/><g><path class="cls-1" d="M92.25,142.41c-2.51-4.51-2.81-10.03-.81-14.75l7.09-17.07c-10.71,1.37-20.97,3.2-30.48,5.45,1.04,2.4,2,4.56,2.93,6.56,2.43,5.27,5.05,10.55,7.79,15.71,5.07,9.57,10.76,19.16,16.94,28.57l5-17.4c-3.47-1.11-6.52-3.59-8.46-7.08Z"/><path class="cls-1" d="M132.9,180.46c4.1-.17,8.17-.4,12.21-.7l30.27-43.94c-5.58-9.47-11.69-18.82-18.3-27.98-3.99-.13-7.94-.19-11.75-.19-4.89,0-10.07,.11-15.38,.32l-1.04,.04h0c-6.42,.27-12.78,.72-19.03,1.31l-9.22,22.2c-.81,1.91-.68,4.21,.33,6.03,.27,.49,1.77,2.93,4.44,2.56l8.72-1.21-11.13,38.68c.68,.95,1.38,1.93,2.13,2.96,9.19,.32,18.53,.29,27.74-.09Z"/><path class="cls-1" d="M148.48,96.43l-.56-.71c-1.66-2.1-3.4-4.24-5.17-6.36-3.51-4.2-7.09-8.27-10.65-12.1-2.09-2.25-4.16-4.39-6.21-6.45l-11.14,26.81c4.87-.39,9.79-.69,14.73-.89,6.3-.25,12.68-.35,19-.29Z"/><path class="cls-1" d="M133.37,191.71c-6.71,.27-13.25,.37-19.57,.3,1.48,1.86,2.97,3.7,4.46,5.5,2.69,3.25,5.41,6.39,8.14,9.43l10.61-15.39c-1.21,.06-2.42,.12-3.63,.17Z"/><path class="cls-1" d="M99.01,191.57l-18.46,64.19c-.43,1.09-.57,2.35-.39,3.55l.05,.33,.08,.33c.31,1.24,.94,2.32,1.83,3.11,.53,.47,1.65,1.25,3.09,1.13h0l1.83-.16,33.28-48.3c-6.89-7.55-13.59-15.64-19.96-24.1-.45-.02-.9-.05-1.36-.07Z"/><path class="cls-1" d="M184.56,122.5c1.32-1.86,1.51-4.44,.51-6.62-.17-.37-1.72-3.55-4.8-3l-6.32,1.12c2.74,4.13,5.38,8.27,7.9,12.43l2.7-3.92Z"/><path class="cls-1" d="M194.04,172.55l-.35-.82c-1.19-2.77-2.31-5.25-3.4-7.6-2.9-6.24-6.07-12.45-9.43-18.62l-22.78,33.06c12.67-1.39,24.82-3.41,35.97-6.01Z"/><path class="cls-1" d="M139.3,220.35c3.44,3.32,6.93,6.49,10.37,9.41,1.62,1.38,3.3,2.76,5.14,4.21,.21,.17,.42,.33,.62,.49l1.24,.93c.81,.61,1.63,1.22,2.45,1.81,6.54,4.71,12.66,8.3,18.71,10.98l.5,.21c.35,.15,.7,.29,1.05,.42,.7,.27,1.4,.51,2.1,.75,1.34,.46,2.7,.86,4.03,1.18,.67,.16,1.35,.3,2.03,.44l.13,.02c.25,.04,.49,.09,.74,.13l.14,.02h.08c.19,.03,.43,.05,.49,.06l-.05,.88,.09-.88c1.07,.1,2.07,.18,3.11,.18,.46,0,.96-.02,1.54-.06,.22-.01,.43-.03,.64-.05h.13c1.16-.22,2.09-.44,2.93-.71,.22-.07,.42-.14,.62-.22l.38-.17c.3-.15,.61-.29,.9-.46,.45-.25,.93-.55,1.42-.88h0s.03-.02,.05-.04h0s.07-.05,.11-.08c.12-.1,.25-.2,.37-.3,.51-.44,.97-.93,1.42-1.43h0s.43-.48,.43-.48c0,0,0,0,.01-.01h.01s0-.02,0-.02l.02-.02c.11-.12,.28-.34,.37-.46,.15-.22,.31-.46,.47-.7,.28-.43,.55-.89,.85-1.46,.18-.33,.33-.67,.48-1.01,.08-.18,.17-.37,.25-.55h0c.04-.08,.07-.15,.08-.2,.11-.29,.22-.6,.32-.9,.43-1.25,.8-2.6,1.09-4,.15-.71,.27-1.41,.39-2.13l.16-1.32c.16-1.56,.26-3.17,.28-4.8,.06-3.46-.14-7.07-.62-11.03-.02-.24-.05-.44-.08-.65-.01-.06-.02-.11-.03-.16,0-.04-.02-.1-.02-.16,0-.03-.01-.06-.02-.09l-.16-1.17c-.15-.95-.31-1.9-.47-2.86-.37-2.08-.8-4.23-1.29-6.38-.98-4.33-2.18-8.75-3.67-13.49l-.05-.16c-1.01-3.19-2.14-6.49-3.37-9.84-14.82,3.56-31.33,6.12-48.51,7.55l-16.35,23.73c1.97,2.04,3.95,4.02,5.93,5.93Z"/><path class="cls-1" d="M161.84,96.79c6.01,.27,11.9,.71,17.61,1.28L225.97,19.6c1.13-1.96,1.11-4.63-.06-6.67-.7-1.23-2.54-3.12-4.94-2.4l-.6,.14-73.16,12.5c-1.54,.56-2.33,1.94-2.67,2.71l-14.36,34.56c10.94,10.59,21.33,22.51,31.64,36.35Z"/><path class="cls-1" d="M192.76,128.23l-5.31,7.71c6.4,11.31,12,22.69,16.73,34.04,5.58-1.57,10.76-3.26,15.42-5.02l.18-.07c19.97-7.59,32.17-17.37,31.84-25.55-.42-10.18-20.56-22.2-57.69-28.09,.08,.16,.17,.32,.25,.49,2.48,5.44,1.94,11.76-1.42,16.49Z"/><path class="cls-1" d="M170.5,108.88c.46,.66,.9,1.33,1.36,2l1.24-2.09c-.94-.08-1.87-.16-2.82-.23l.22,.32Z"/><path class="cls-1" d="M79.76,161.13c-8.77-14.46-16.13-28.73-21.88-42.42-5.29,1.51-10.2,3.12-14.61,4.79-20.07,7.6-32.34,17.42-32.01,25.62,.33,8.25,12.82,16.74,33.44,22.77h0s.55,.15,.55,.15c13.37,3.86,29.06,6.48,46.64,7.8-4.23-6.12-8.31-12.41-12.14-18.71Z"/><path class="cls-5" d="M78.76,138.31c-2.74-5.16-5.36-10.44-7.79-15.71-.93-2.01-1.89-4.17-2.93-6.56,9.51-2.25,19.78-4.08,30.48-5.45l4.95-11.92c-14,1.54-27.41,3.84-39.66,6.83-1.46-3.9-2.78-7.74-3.93-11.44-.43-1.39-1.43-2.57-2.74-3.25-1.18-.61-2.49-.73-3.69-.34-2.8,.91-4.41,3.79-3.58,6.42,1.17,3.73,2.46,7.53,3.85,11.3-5.2,1.51-10.06,3.12-14.46,4.79C13.01,122.93-.56,135.59,.02,149.58c.57,13.99,15.13,25.51,42.11,33.29,13.38,3.86,29.34,6.59,46.68,8.02l6.9-24.01c-6.18-9.41-11.87-19-16.94-28.57Zm-34.06,33.58h0c-20.62-6.02-33.11-14.52-33.44-22.76-.33-8.2,11.94-18.02,32.01-25.62,4.42-1.67,9.33-3.28,14.61-4.79,5.75,13.7,13.1,27.97,21.88,42.42,3.83,6.3,7.91,12.59,12.14,18.71-17.59-1.32-33.27-3.94-46.64-7.8l-.55-.16Z"/><path class="cls-5" d="M262.87,138.9l-.02-.41-.02-.02c-.84-13.81-15.38-25.17-42.09-32.88-9.09-2.62-19.35-4.72-30.42-6.24l-2.98,5.03c2.75,1.43,5.07,3.8,6.59,6.87,37.13,5.89,57.27,17.91,57.69,28.09,.33,8.18-11.87,17.96-31.84,25.55l-.18,.07c-4.65,1.76-9.84,3.45-15.42,5.02-4.74-11.36-10.34-22.73-16.73-34.04l-6.59,9.57c3.37,6.17,6.53,12.38,9.43,18.62,1.1,2.35,2.21,4.84,3.4,7.6l.35,.82c-11.15,2.6-23.3,4.62-35.97,6.01l-8.35,12.12c17.17-1.44,33.69-4,48.51-7.55,1.23,3.35,2.37,6.65,3.37,9.84l.05,.16c1.49,4.74,2.69,9.15,3.67,13.49,.49,2.15,.93,4.3,1.29,6.38,.17,.96,.33,1.92,.47,2.86l.16,1.17s.01,.06,.02,.09c0,.06,.01,.12,.02,.16,0,.05,.01,.1,.03,.16,.03,.21,.05,.42,.08,.65,.48,3.96,.68,7.56,.62,11.03-.02,1.63-.12,3.24-.28,4.8l-.16,1.32c-.12,.72-.24,1.42-.39,2.13-.29,1.4-.66,2.75-1.09,4-.11,.3-.22,.61-.32,.9-.02,.05-.05,.12-.08,.19h0c-.09,.18-.17,.37-.25,.55-.15,.34-.31,.68-.48,1.01-.3,.56-.57,1.02-.85,1.46-.15,.24-.31,.48-.47,.7-.09,.12-.26,.34-.37,.46l-.02,.02h0s-.01,.02-.01,.02c0,0,0,0-.01,.01l-.43,.47h0c-.45,.51-.91,1-1.42,1.44-.12,.11-.24,.21-.37,.3-.04,.03-.07,.06-.11,.09h0s-.03,.02-.05,.03h0c-.49,.33-.97,.63-1.42,.88-.3,.16-.6,.31-.9,.46l-.38,.17c-.2,.08-.41,.15-.62,.22-.84,.27-1.77,.5-2.93,.7h-.13c-.21,.03-.42,.05-.64,.07-.58,.04-1.07,.06-1.54,.06-1.04,0-2.04-.08-3.11-.18l-.09,.88,.05-.88c-.06,0-.3-.02-.49-.05h-.08s-.14-.03-.14-.03c-.25-.04-.49-.08-.74-.13l-.13-.02c-.68-.13-1.36-.27-2.03-.44-1.33-.32-2.68-.72-4.03-1.18-.7-.24-1.4-.49-2.1-.75-.35-.13-.69-.27-1.05-.42l-.5-.21c-6.05-2.67-12.17-6.26-18.71-10.98-.83-.59-1.64-1.2-2.45-1.81l-1.24-.93c-.2-.16-.41-.32-.62-.49-1.84-1.45-3.52-2.83-5.14-4.21-3.44-2.92-6.93-6.09-10.37-9.41-1.97-1.91-3.95-3.89-5.93-5.93l-6.03,8.75c5.73,5.84,11.35,11.03,17.06,15.74,7.66,6.31,14.32,10.97,20.95,14.68,7.17,4.01,13.25,6.42,19.14,7.59,2.74,.55,5.32,.82,7.75,.82,3.37,0,6.43-.53,9.15-1.58,5.57-2.16,10.13-6.31,12.82-11.68,2.73-5.45,4.11-11.97,4.21-19.94,.09-7.52-.91-15.56-3.14-25.29-1.68-7.32-3.96-14.86-6.97-23.01,5.4-1.54,10.53-3.23,15.27-5.01,26.26-9.95,39.83-22.6,39.27-36.6Z"/><path class="cls-5" d="M105.31,39.74c-6.92-4.75-13.48-8.28-20.05-10.81-6.42-2.45-12.3-3.51-17.5-3.14-7.53,.54-13.8,3.91-18.13,9.76-2.76,3.73-4.63,8.58-5.56,14.41-.42,2.62,.72,5.63,3.7,6.3,1.48,.34,3.19,.01,4.47-.85,1.05-.71,1.73-1.74,1.92-2.9,.43-2.69,1.07-5.12,1.99-7.52l.28-.58c.22-.44,.44-.87,.69-1.3,.3-.52,.59-1,.9-1.45l.51-.69c.68-.8,1.45-1.51,2.09-2.08,.07-.06,.13-.11,.18-.16h.02c.09-.07,.17-.12,.23-.16,.25-.18,.51-.34,.8-.51,.41-.25,.85-.49,1.3-.7l.21-.09c.08-.03,.15-.06,.22-.1h0c.1-.03,.19-.07,.23-.09,.91-.33,1.92-.59,3-.79l.34-.05h0s.12-.02,.12-.02h0s.1-.01,.1-.01h0c.59-.05,1.16-.08,1.75-.09,1.1-.03,2.26,.03,3.53,.16l.32,.04c.19,.03,.38,.06,.58,.09,.71,.12,1.4,.26,2.09,.42,2.44,.56,4.96,1.38,8.13,2.65l1.44,.64c.81,.37,1.62,.76,2.42,1.16,1.5,.75,3.03,1.58,4.55,2.45,3.14,1.8,6.29,3.83,9.61,6.2,.79,.56,1.57,1.13,2.33,1.69l2.09,1.58c1.79,1.4,3.43,2.73,5.01,4.05,2.31,1.94,4.62,3.97,6.92,6.09l4.23-10.18c-5.77-5.11-11.4-9.54-17.08-13.43Z"/></g><path class="cls-3" d="M220.98,10.53l-.6,.14-73.16,12.5c-1.54,.56-2.33,1.94-2.67,2.71l-43.89,105.65c-.81,1.91-.68,4.21,.33,6.03,.27,.49,1.77,2.93,4.44,2.56l8.72-1.21-33.61,116.86c-.43,1.09-.57,2.35-.39,3.55l.05,.33,.08,.33c.31,1.24,.94,2.32,1.83,3.11,.53,.47,1.65,1.25,3.09,1.13h0c1.16-.1,2.22-.71,2.88-1.67L184.56,122.5c1.32-1.86,1.51-4.44,.51-6.62-.17-.37-1.72-3.55-4.8-3l-10.72,1.89L225.97,19.6c1.13-1.96,1.11-4.63-.06-6.67-.7-1.23-2.54-3.12-4.94-2.4Z"/></svg>