<svg id="Layer_1" data-name="Layer 1" xmlns="http://www.w3.org/2000/svg" width="315.21" height="100.92" viewBox="0 0 315.21 100.92"><path d="M65.84,70.49H59.38l-21-24.36V70.49h-7.7v-38h6.46l21,25v-25h7.7Z" style="fill:#1d1d1b"/><path d="M99.05,58.37H77.52c.73,4.08,3.62,6.57,7.08,6.57,2.21,0,5-.28,7-3.74l6.68,1.42c-2.49,5.89-7.53,8.72-13.71,8.72-8,0-14.51-6.06-14.51-15s6.52-15,14.62-15c7.54,0,14.06,5.83,14.34,14.45ZM77.74,53.1H91.4a6.58,6.58,0,0,0-6.69-5.22A7.1,7.1,0,0,0,77.74,53.1Z" style="fill:#1d1d1b"/><path d="M133.67,70.55h-6.74l-5.55-16.66-5.61,16.66H109l-9.4-28.33H107l5.61,17.39,5.78-17.39h5.84l5.78,17.45,5.61-17.45h7.42Z" style="fill:#1d1d1b"/><path d="M146.19,70.49V29.69h7.48v40.8Z" style="fill:#1d1d1b"/><path d="M188.18,56.38c0,8.9-7,14.85-15.25,14.85-8.44,0-15.41-6-15.41-14.85s7-14.84,15.41-14.84C181.21,41.54,188.18,47.49,188.18,56.38Zm-7.26,0a8.08,8.08,0,1,0-8,8.45A8.16,8.16,0,0,0,180.92,56.38Z" style="fill:#1d1d1b"/><path d="M220.42,67.77c0,8.67-6,13.49-15.13,13.49-6.57,0-11.33-2.32-13.77-6.23l6.07-4.59c2.21,2.77,4,4.08,7.7,4.08,4.76,0,7.88-3,7.88-7.88v-.45c-2.1,1.7-5,2.6-8.9,2.6a13.71,13.71,0,1,1,0-27.42c3.91,0,6.8,1,8.9,2.6V42.22h7.2ZM213.17,55a7.39,7.39,0,0,0-7.59-7.36c-4.48,0-7.82,2.94-7.82,7.36s3.34,7.37,7.82,7.37A7.4,7.4,0,0,0,213.17,55Z" style="fill:#1d1d1b"/><path d="M234.81,33.77a4.54,4.54,0,0,1-9.07,0,4.54,4.54,0,0,1,9.07,0Zm-8.28,36.72V42.22H234V70.49Z" style="fill:#1d1d1b"/><path d="M260.66,59l6.92,1.76c-1.59,6.46-7.43,10.59-14.17,10.59-8.27,0-15.13-6.06-15.13-15a14.75,14.75,0,0,1,15.13-15,14.55,14.55,0,0,1,14.17,10.42l-7.2,2c-1-4-3.68-5.61-7-5.61-4.7,0-7.88,3.35-7.88,8.16s3.18,8.11,7.88,8.11C256.7,64.49,259.36,62.9,260.66,59Z" style="fill:#1d1d1b"/><path d="M288.52,64.25a7.08,7.08,0,1,1-7.08-7.12A7,7,0,0,1,288.52,64.25Zm-1.52,0a5.55,5.55,0,1,0-5.56,5.6A5.53,5.53,0,0,0,287,64.25Zm-3.93.85,1.8,2.16H283l-1.63-2h-.88v2h-1.63V60.81h3.11c1.63,0,2.63.89,2.63,2.16A2.21,2.21,0,0,1,283.07,65.1Zm-1.17-1.2c.67,0,1.1-.36,1.1-.89s-.43-.82-1.1-.82h-1.45V63.9Z" style="fill:#1d1d1b"/></svg>